/* XPM */
static char *LiderConsole___[] = {
/* columns rows colors chars-per-pixel */
"48 48 175 2",
"   c #000001",
".  c #090703",
"X  c #0C0A03",
"o  c #070709",
"O  c #0B0B0C",
"+  c #110E04",
"@  c #151204",
"#  c #1A1605",
"$  c #1E1906",
"%  c #171309",
"&  c #1E1A09",
"*  c #0F1010",
"=  c #141515",
"-  c #171718",
";  c #171818",
":  c #1C1C1C",
">  c #211C04",
",  c #221D0A",
"<  c #262105",
"1  c #2A2305",
"2  c #2A250B",
"3  c #2F290F",
"4  c #312A06",
"5  c #382F03",
"6  c #332A0A",
"7  c #392F0C",
"8  c #3C3205",
"9  c #37330D",
"0  c #3C340C",
"q  c #3C3511",
"w  c #3F3811",
"e  c #232323",
"r  c #2C2C2C",
"t  c #333333",
"y  c #3C3C3C",
"u  c #423705",
"i  c #473B06",
"p  c #4A3D04",
"a  c #433A0A",
"s  c #4B3F0C",
"d  c #4E4307",
"f  c #4D410B",
"g  c #574802",
"h  c #5A4B05",
"j  c #514509",
"k  c #53480E",
"l  c #5C4D0B",
"z  c #5E510C",
"x  c #4F4313",
"c  c #524512",
"v  c #564910",
"b  c #574E1B",
"n  c #5F5219",
"m  c #645305",
"M  c #695703",
"N  c #6E5D07",
"B  c #64550C",
"V  c #69560C",
"C  c #6C5B0C",
"Z  c #725D06",
"A  c #705F0E",
"S  c #635611",
"D  c #62581B",
"F  c #6B5F1D",
"G  c #705E10",
"H  c #746204",
"J  c #7A6605",
"K  c #7D6A06",
"L  c #76620B",
"P  c #7A660A",
"I  c #7E6B0C",
"U  c #766611",
"Y  c #75671D",
"T  c #756A1E",
"R  c #444444",
"E  c #4B4B4B",
"W  c #535353",
"Q  c #5C5C5C",
"!  c #626262",
"~  c #6E6E6E",
"^  c #816B09",
"/  c #887400",
"(  c #8D7807",
")  c #86710B",
"_  c #8A740A",
"`  c #8F790C",
"'  c #937E04",
"]  c #937C0D",
"[  c #9A7F0C",
"{  c #867310",
"}  c #847422",
"|  c #867D23",
" . c #8F7C20",
".. c #9E8402",
"X. c #9F8803",
"o. c #9C850D",
"O. c #9B8B0E",
"+. c #9E8A10",
"@. c #A28704",
"#. c #A38A01",
"$. c #A98C04",
"%. c #A3860B",
"&. c #A38B0C",
"*. c #AA9606",
"=. c #A6900F",
"-. c #AD920A",
";. c #B39403",
":. c #B49C07",
">. c #BB9B04",
",. c #B3960C",
"<. c #B4990B",
"1. c #BB9C09",
"2. c #AA8D10",
"3. c #AC9012",
"4. c #B69E14",
"5. c #BDA00B",
"6. c #928124",
"7. c #9D8723",
"8. c #9B8825",
"9. c #A69629",
"0. c #A99729",
"q. c #B69F2A",
"w. c #C19E01",
"e. c #C19E0A",
"r. c #C5A403",
"t. c #C9A705",
"y. c #C4A50D",
"u. c #CCA70B",
"i. c #C2AA0D",
"p. c #CDAA0A",
"a. c #D3AE06",
"s. c #D1AB0B",
"d. c #D1B103",
"f. c #DBB406",
"g. c #D5B40B",
"h. c #DCB509",
"j. c #D6BB0C",
"k. c #DDBA0B",
"l. c #CCAB10",
"z. c #E0B607",
"x. c #E5BC05",
"c. c #E8BF06",
"v. c #E3BB09",
"b. c #C5AD2E",
"n. c #DFC10A",
"m. c #E5C307",
"M. c #EDC305",
"N. c #E3C00C",
"B. c #EAC309",
"V. c #ECCB0A",
"C. c #F3C503",
"Z. c #F5C903",
"A. c #FFCC00",
"S. c #F1C908",
"D. c #FFCF09",
"F. c #FFD301",
"G. c #FFDA02",
"H. c #F3D209",
"J. c #FAD50A",
"K. c #FCD909",
"L. c #FFE202",
"P. c #FFE802",
"I. c #D9C131",
"U. c #FFD52F",
"Y. c #FFDB2F",
"T. c #E6C732",
"R. c #E4C832",
"E. c #E9CE33",
"W. c #F4D533",
"Q. c #FFD630",
"!. c #F5D933",
"~. c #FEDB31",
"^. c #FFE433",
"/. c #FFEA35",
"(. c None",
/* pixels */
"(.(.(.(.(.(.(.(.(.(.(.(.(.(.(.(.(.(.(.(.(.(.(.(.(.(.(.(.(.(.(.(.(.(.(.(.(.(.(.(.(.(.(.(.(.(.(.(.",
"(.(.(.(.(.(.(.(.(.(.(.(.(.(.(.(.(.(.(.(.(.(.(.(.(.(.(.(.(.(.(.(.(.(.(.(.(.(.(.(.(.(.(.(.(.(.(.(.",
"(.(.(.(.(.(.(.(.(.(.(.(.(.(.(.(.(.(.(.(.(.(.(.(.(.(.(.(.(.(.(.(.(.(.(.(.(.(.(.(.(.(.(.(.(.(.(.(.",
"(.(.(.(.(.(.Q R (.(.(.(.(.(.(.(.(.(.(.(.(.(.(.(.(.(.(.(.(.(.(.(.(.(.(.(.(.(.(.(.(.Q (.(.(.(.(.(.",
"(.(.(.(.(.e       O Q (.(.(.(.(.(.(.(.(.(.Q t = o ; y ~ (.(.(.(.(.(.(.(.(.(.r         (.(.(.(.(.",
"(.(.(.(.e   w | 3       W (.(.(.(.E :                     o t ! (.(.(.(.:     X F T     (.(.(.(.",
"(.(.(.!   & R./.W.9.9       :           6 m o.i.d.3.I f $         * -     @ Y I.^./.Y   O (.(.(.",
"(.(.(.  . q.^.U.~.^.!.9.2     @ 0 V o.h.K.K.F.F.F.G.G.F.B.5.{ f &       D I./.~.Q.~.~.w   ! (.(.",
"(.(.(.  b /.Q.Q.Q.Q.~.~.3   s &.i.G.G.M._ Z.A.A.A.A.A.A.A.F.G.K.V.`     0./.U.U.Q.Q.^.b.  r (.(.",
"(.(.(.  & T.~.Q.Q.Q.^.6.  # =.+ X a.L.J   M.A.A.A.A.A.A.A.A.A.A.F.G.l   2 !.~.Q.Q.Q.^.Y   ~ (.(.",
"(.(.(.W   n ^.Q.Q.~.W.&   _ '     ..P.j j F.A.A.A.A.A.A.A.A.A.A.A.F.h.X   7.^.U.Q.^.b..   (.(.(.",
"(.(.(.(.    8./.~./. .  @ Z.t.    t.F.a.x.F.A.A.A.A.A.A.A.A.A.A.A.A.G.L   2 W.U.^.T.6   Q (.(.(.",
"(.(.(.(.Q     } !.E.,   ) F.g.,.1.F.F.F.F.A.A.A.A.A.A.A.A.A.A.A.A.A.F.x.@   6./.b.3   O (.(.(.(.",
"(.(.(.(.(.=     2 2   # S.h . 1.L.z.y.A.A.A.A.A.A.A.A.A.A.A.A.A.A.A.A.F.P   X 9       (.(.(.(.(.",
"(.(.(.(.(.(.          _ G.5   o.P.H O M.A.A.A.A.A.A.A.A.A.A.A.A.A.A.A.F.c.@         t (.(.(.(.(.",
"(.(.(.(.(.(.R       # M.F.h.&.Z.A.v.y.A.A.A.A.A.A.A.A.A.A.A.A.A.A.A.A.A.G.P         (.(.(.(.(.(.",
"(.(.(.(.(.(.(.      _ G.A.F.G.A.A.F.F.A.A.A.A.A.A.A.A.A.A.A.A.A.A.A.A.A.F.c.#     E (.(.(.(.(.(.",
"(.(.(.(.(.(.(.:   # M.F.A.A.A.A.A.A.A.A.A.A.A.A.A.A.A.A.A.A.A.A.A.A.A.A.A.G.P     (.(.(.(.(.(.(.",
"(.(.(.(.(.(.(.:   _ G.A.A.F.F.G.F.G.K.K.K.F.A.A.A.A.A.F.F.K.K.G.G.F.F.F.A.F.c.#   (.(.(.(.(.(.(.",
"(.(.(.(.(.(.(.  $ C.A.F.f..._ J Z C l c x ] F.A.A.F.f.v c c V Z J P ' >.A.A.G.^   t (.(.(.(.(.(.",
"(.(.(.(.(.(.R   ^ G.A.A.Z.x.s.:.^   @ 2   a F.A.A.F.;.  O 6   q *.y.h.M.A.A.F.z.X   (.(.(.(.(.(.",
"(.(.(.(.(.(.r   >.G.A.A.A.A.F.F.K.] u.J.0 p F.A.A.F.w.. 1.J.` h.G.F.A.A.A.A.A.F.i   (.(.(.(.(.(.",
"(.(.(.(.(.(.t   >.F.A.A.A.A.A.A.A.G.F.G.N g G.A.A.F.r.# B.F.F.F.A.A.A.A.A.A.A.F.8   (.(.(.(.(.(.",
"(.(.(.(.(.(.E   @.G.A.A.A.A.A.A.A.A.A.F.4 ) G.A.A.F.M.% >.F.A.A.A.A.A.A.F.F.F.Z.>   (.(.(.(.(.(.",
"(.(.(.(.(.(.Q   P G.A.A.A.A.A.A.A.A.F.f.X r.F.A.A.A.F.8 N G.A.A.A.A.A.A.x.B C.z.. o (.(.(.(.(.(.",
"(.(.(.(.(.(.(.  h F.A.A.A.A.A.A.A.A.G.&.o M.F.A.A.A.G.M 6 K.A.A.A.A.A.G.@.  x.t.  : (.(.(.(.(.(.",
"(.(.(.(.(.(.(.  4 F.F.A.A.A.A.A.A.A.F.t.i C.A.A.A.A.G./ C F.A.A.A.A.A.K.$.6 G.%.  y (.(.(.(.(.(.",
"(.(.(.(.(.(.(.  @ M.A.A.A.A.A.F.z.Z.A.A.F.G.G.F.F.K.G.F.F.A.F.z.C.G._ 6 B.v.L.H   Q (.(.(.(.(.(.",
"(.(.(.(.(.(.(.=   s.F.A.A.A.F.h.P F.A.F.-.m m m m m m L C.F.F.1.` G.1.U _ 4 ,.l   (.(.(.(.(.(.(.",
"(.(.(.(.(.(.(.r   $.F.A.A.A.F.j I G.A.F.L             X B.A.A.x.$ g.G.P.p   B 8   (.(.(.(.(.(.(.",
"(.(.(.(.(.(.(.Q   L G.A.A.F.1.  *.G.A.A.F.a         . 5.F.A.A.F.< d F.F.s.I y.+ O (.(.(.(.(.(.(.",
"(.(.(.(.(.(.(.(.  1 j.K.L.G.5   u.G.G.F.N.N.1       o.V.S.G.F.K.d   f.L.L.K.)   R (.(.(.(.(.(.(.",
"(.(.(.(.(.(.(.(.=   o a K m     y.m._ l G D.s.@   A L.2.f A 5.H.u   S O.B $     (.(.(.(.(.(.(.(.",
"(.(.(.(.(.(.(.(.(.W             2 f ) <.4.M.L.( < F.F.l.4.O.z 0 .           = (.(.(.(.(.(.(.(.(.",
"(.(.(.(.(.(.(.(.(.(.(.(.R         U { B o.Z.G.#.5 F.F.u.U V o.#       e Q (.(.(.(.(.(.(.(.(.(.(.",
"(.(.(.(.(.(.(.(.(.(.(.(.~ e W O     ] K.<.1.G.#.5 F.C.%.M.N.,     t R r (.(.(.(.(.(.(.(.(.(.(.(.",
"(.(.(.(.(.(.(.(.(.(.(.r Q (.(.t     i C I z.L.@.4 G.A.-.B C .     (.(.(.e (.(.(.(.(.(.(.(.(.(.(.",
"(.(.(.(.(.(.(.(.(.(.r (.(.(.E (.(.O   A P.G.y.2 % P J.P.j.o   ! (.r (.(.(.Q y (.(.(.(.(.(.(.(.(.",
"(.(.(.(.(.(.(.(.! ! (.(.(.W Q (.(.:   + p.o.  _ j.$ 0 n.l     ! (.(.: (.(.(.(.y (.(.(.(.(.(.(.(.",
"(.(.(.(.(.(.(.(.(.(.(.(.(.E (.(.r (.y   X o ] K.G.v.1 X     (.! (.(.(.t (.(.(.(.(.(.(.(.(.(.(.(.",
"(.(.(.(.(.(.(.(.(.(.(.(.R (.(.y (.(.(.O   0 H.F.D.G.&.    (.(.(.r (.(.(.Q (.(.(.(.(.(.(.(.(.(.(.",
"(.(.(.(.(.(.(.(.(.(.(.(.(.(.(.R (.(.(.(.    > 7 0 1 .   W (.(.(.(.r (.(.(.(.(.(.(.(.(.(.(.(.(.(.",
"(.(.(.(.(.(.(.(.(.(.(.(.(.(.r (.(.(.(.(.(.-           W (.(.(.(.(.Q (.(.(.(.(.(.(.(.(.(.(.(.(.(.",
"(.(.(.(.(.(.(.(.(.(.(.(.(.(.(.(.(.(.(.(.(.(.(.(.(.(.(.(.(.(.(.(.(.(.y (.(.(.(.(.(.(.(.(.(.(.(.(.",
"(.(.(.(.(.(.(.(.(.(.(.(.(.Q (.(.(.(.(.(.(.(.(.(.(.(.(.(.(.(.(.(.(.(.(.(.(.(.(.(.(.(.(.(.(.(.(.(.",
"(.(.(.(.(.(.(.(.(.(.(.(.(.(.(.(.(.(.(.(.(.(.(.(.(.(.(.(.(.(.(.(.(.(.(.(.(.(.(.(.(.(.(.(.(.(.(.(.",
"(.(.(.(.(.(.(.(.(.(.(.(.(.(.(.(.(.(.(.(.(.(.(.(.(.(.(.(.(.(.(.(.(.(.(.(.(.(.(.(.(.(.(.(.(.(.(.(.",
"(.(.(.(.(.(.(.(.(.(.(.(.(.(.(.(.(.(.(.(.(.(.(.(.(.(.(.(.(.(.(.(.(.(.(.(.(.(.(.(.(.(.(.(.(.(.(.(."
};
